<svg xmlns="http://www.w3.org/2000/svg" viewBox="0 0 160 160">
  <defs><linearGradient id="d" x1="0" y1="0" x2="1" y2="1"><stop offset="0" stop-color="#2b4a8a"/><stop offset="1" stop-color="#0b1a3d"/></linearGradient>
  <linearGradient id="o" x1="0" y1="0" x2="1" y2="1"><stop offset="0" stop-color="#ffe39a"/><stop offset="1" stop-color="#d9962a"/></linearGradient></defs>
  <rect x="8" y="8" width="144" height="144" rx="18" fill="url(#d)" stroke="url(#o)" stroke-width="6"/>
  <circle cx="80" cy="80" r="50" fill="#0b1a3d" stroke="#19d3c5" stroke-width="5"/>
  <circle cx="80" cy="80" r="36" fill="none" stroke="url(#o)" stroke-width="4" stroke-dasharray="6 6"/>
  <g stroke="url(#o)" stroke-width="7" stroke-linecap="round">
    <line x1="80" y1="52" x2="80" y2="108"/><line x1="52" y1="80" x2="108" y2="80"/>
    <line x1="60" y1="60" x2="100" y2="100"/><line x1="100" y1="60" x2="60" y2="100"/>
  </g>
  <circle cx="80" cy="80" r="12" fill="url(#o)"/>
  <rect x="140" y="50" width="10" height="20" rx="3" fill="#19d3c5"/><rect x="140" y="92" width="10" height="20" rx="3" fill="#19d3c5"/>
  <g fill="#19d3c5"><circle cx="22" cy="22" r="4"/><circle cx="138" cy="22" r="4"/><circle cx="22" cy="138" r="4"/><circle cx="138" cy="138" r="4"/></g>
</svg>
